# xmcd
#
# Track frame offsets:
#	150
#	15015
#	30517
#	43405
#	64435
#	76617
#	93795
#	107992
#	118589
#	129980
#	145990
#	161677
#	172052
#	181795
#	196510
#
# Disc length: 2829 seconds
#
# Revision: 0
# Processed by: cddbd v1.5.1PL2 Copyright (c) Steve Scherf et al.
# Submitted via: audiograbber 1.83.01
#
DISCID=b90b0b0f
DTITLE=Sound Choice Karaoke - SC8739
DYEAR=1900
DGENRE=Humour
TTITLE0=Judd, Cledus T - How Do You Milk A Cow
TTITLE1=Confederate Railroad - Trashy Women
TTITLE2=Carrington, Rodney - More Of A Man
TTITLE3=Judd, Cledus T - Plowboy
TTITLE4=Confederate Railroad - The Big One
TTITLE5=Stevens, Ray - Osama Yo Mama
TTITLE6=Carrington, Rodney - Great To Be A Man
TTITLE7=Pinkard and Bowden - Libyan On A Jet Plane
TTITLE8=Pinkard and Bowden - She Thinks I Steal Cars
TTITLE9=Pinkard and Bowden - Mama She's Lazy
TTITLE10=Confederate Railroad - I Hate Rap
TTITLE11=Carrington, Rodney - Fred
TTITLE12=Carrington, Rodney - Morning Wood
TTITLE13=Judd, Cledus T - Cledus The Karaoke King
TTITLE14=Judd, Cledus T - Did I Shave My Back For This
EXTD=
EXTT0=
EXTT1=
EXTT2=
EXTT3=
EXTT4=
EXTT5=
EXTT6=
EXTT7=
EXTT8=
EXTT9=
EXTT10=
EXTT11=
EXTT12=
EXTT13=
EXTT14=
PLAYORDER=
